# xmcd CD database file
#
# Track frame offsets:
#	150
#	10762
#	21508
#	32841
#	44038
#	57487
#	69391
#	81418
#	90657
#	103278
#	117572
#	130644
#	143285
#	154922
#	168777
#	181687
#	197085
#	209514
#	218049
#	228605
#	239768
#	252253
#	265226
#	275747
#	286603
#	299713
#	311679
#	322123
#
# Disc length: 4483 seconds
#
# Revision: 1
# Processed by: cddbd v1.5.2PL0 Copyright (c) Steve Scherf et al.
# Submitted via: CDex 1.51
#
DISCID=b111811c
DTITLE=Mills Brothers - The Mills Brothers Collection 1931-52_CD1
DYEAR=2014
DGENRE=Blues
TTITLE0=The Mills Brothers - Nobody's Sweetheart
TTITLE1=The Mills Brothers - You Rascal, You
TTITLE2=The Mills Brothers - Howm I Doin, Hey Hey
TTITLE3=The Mills Brothers - I Heard
TTITLE4=The Mills Brothers - Goodbye Blues
TTITLE5=The Mills Brothers - Chinatown, My Chinatown
TTITLE6=The Mills Brothers - Loveless Love
TTITLE7=The Mills Brothers - Bugle Call Rag
TTITLE8=The Mills Brothers - I Cant Give You Anything but Love
TTITLE9=The Mills Brothers With The Don Redman Orch. and Cab Calloway - Doin' The New Low Down
TTITLE10=The Mills Brothers - Smoke Rings
TTITLE11=The Mills Brothers - Thats Georgia
TTITLE12=The Mills Brothers - Swing It Sister
TTITLE13=The Mills Brothers - Sleepy Head
TTITLE14=The Mills Brothers - My Gal Sal
TTITLE15=The Mills Brothers - Rockin' Chair
TTITLE16=The Mills Brothers - I've Found A New Baby
TTITLE17=The Mills Brothers - Sweeter Than Sugar
TTITLE18=The Mills Brothers - Limehouse Blues
TTITLE19=The Mills Brothers - What's The Reason
TTITLE20=The Mills Brothers - Sweet Lucy Brown
TTITLE21=The Mills Brothers - Lulu's Back In Town
TTITLE22=The Mills Brothers - Sweet And Slow
TTITLE23=The Mills Brothers - Swing For Sale
TTITLE24=The Mills Brothers - The Love Bug Will Bite You
TTITLE25=The Mills Brothers - Rockin' Chair Swing
TTITLE26=The Mills Brothers with Louis Armstrong - In the Shade of the Old Apple Tree
TTITLE27=The Mills Brothers - Sweet Adeline
EXTD=YEAR: 2014
EXTT0=
EXTT1=
EXTT2=
EXTT3=
EXTT4=
EXTT5=
EXTT6=
EXTT7=
EXTT8=
EXTT9=
EXTT10=
EXTT11=
EXTT12=
EXTT13=
EXTT14=
EXTT15=
EXTT16=
EXTT17=
EXTT18=
EXTT19=
EXTT20=
EXTT21=
EXTT22=
EXTT23=
EXTT24=
EXTT25=
EXTT26=
EXTT27=
PLAYORDER=
